Coordinates
version=1
nRows=17
nColumns=38
inDegrees=no

Units are S.I. units (second, meters, Newtons, ...)
If the header above contains a line with 'inDegrees', this indicates whether rotational values are in degrees (yes) or radians (no).

endheader
time	pelvis_tilt	pelvis_list	pelvis_rotation	pelvis_tx	pelvis_ty	pelvis_tz	hip_flexion_r	hip_adduction_r	hip_rotation_r	knee_angle_r	ankle_angle_r	subtalar_angle_r	mtp_angle_r	hip_flexion_l	hip_adduction_l	hip_rotation_l	knee_angle_l	ankle_angle_l	subtalar_angle_l	mtp_angle_l	lumbar_extension	lumbar_bending	lumbar_rotation	arm_flex_r	arm_add_r	arm_rot_r	elbow_flex_r	pro_sup_r	wrist_flex_r	wrist_dev_r	arm_flex_l	arm_add_l	arm_rot_l	elbow_flex_l	pro_sup_l	wrist_flex_l	wrist_dev_l
0	3.10396	1.32284	-1.57897	0.733818	-0.426217	0.9496	-0.380222	-0.024332	-0.285281	0	-0.0330934	0	0	-0.349833	0.00266931	-0.24901	0	-0.0433121	0	0	-0.335545	-0.0195727	0.0404075	0.064729	-0.175416	0.214165	0.301211	0	0	0	0.000801403	-0.271948	0.509446	0.611	1.44694	0	0
0.01	3.11458	1.31866	-1.58689	0.732643	-0.426428	0.9494	-0.384481	-0.0271425	-0.288	0	-0.0302841	0	0	-0.352617	0.00569454	-0.24872	0	-0.042225	0	0	-0.342104	-0.0167023	0.0372718	0.0304679	-0.215912	0.330243	0.408573	0	0	0	0.00508955	-0.268317	0.50823	0.608477	1.44501	0	0
0.02	3.08527	1.31938	-1.56536	0.732972	-0.427504	0.949718	-0.380613	-0.022215	-0.277574	0	-0.0335189	0	0	-0.351459	0.000417928	-0.255599	0	-0.0424352	0	0	-0.344545	-0.0109091	0.0454417	0.0717153	-0.190501	0.303659	0.308492	0	0	0	0.00810875	-0.263372	0.503677	0.608151	1.44301	0	0
0.03	2.66694	1.30305	-1.2601	0.737919	-0.443089	0.954072	-0.325323	0.0535043	-0.139214	0.031288	-0.0714422	0	0	-0.325911	-0.0940711	-0.462774	0.0438738	0.0189383	0	0	-0.390722	0.0824317	0.1737	0.0761327	-0.276122	0.435365	0.442738	0	0	0	0.0539052	-0.20788	0.487965	0.569343	1.44095	0	0
0.04	2.66618	1.30681	-1.26298	0.737933	-0.443127	0.953816	-0.319524	0.0506698	-0.136523	0.0342158	-0.0696014	0	0	-0.349191	-0.0776741	-0.41849	0	-0.0122605	0	0	-0.386449	0.0812917	0.174541	0.076984	-0.287906	0.518722	0.459926	0	0	0	0.0523758	-0.204347	0.479054	0.567606	1.45179	0	0
0.05	2.76431	1.30054	-1.32039	0.735626	-0.438745	0.953278	-0.357986	0.0409113	-0.176247	0.00542732	-0.0670056	0	0	-0.358417	-0.0652344	-0.346016	0	-0.0319797	0	0	-0.386005	0.0724947	0.133513	0.0657695	-0.335117	0.897342	0.584664	0.277752	0	0	0.0422172	-0.214531	0.479167	0.577564	1.45734	0	0
0.06	2.74709	1.2964	-1.30734	0.73574	-0.439566	0.953804	-0.359492	0.0454335	-0.169535	0.00548773	-0.0716225	0	0	-0.361682	-0.0699854	-0.34819	0	-0.0337957	0	0	-0.391117	0.0776915	0.135206	0.0790223	-0.3426	0.948267	0.576424	0.438362	0	0	0.0419793	-0.211635	0.471257	0.580032	1.45952	0	0
0.07	2.75067	1.29762	-1.30984	0.735731	-0.439483	0.953715	-0.359217	0.0445569	-0.170213	0.00463135	-0.0716165	0	0	-0.360445	-0.0689963	-0.347161	0	-0.0339967	0	0	-0.389612	0.0764215	0.133771	0.0783209	-0.338387	0.937252	0.566588	0.52416	0	0	0.0420506	-0.211728	0.470038	0.581625	1.46332	0	0
0.08	2.75378	1.299	-1.31206	0.735757	-0.439402	0.953609	-0.358532	0.0437309	-0.171041	0.00408894	-0.0711965	0	0	-0.359064	-0.0680848	-0.346162	0	-0.0342039	0	0	-0.388005	0.0750925	0.133274	0.0763248	-0.333507	0.919471	0.558298	0.586452	0	0	0.0430719	-0.211689	0.469942	0.582317	1.46647	0	0
0.09	2.75339	1.2999	-1.31176	0.73588	-0.439376	0.95357	-0.357668	0.04375	-0.170985	0.00389878	-0.0712146	0	0	-0.358196	-0.0680954	-0.345987	0	-0.03425	0	0	-0.386858	0.074561	0.133987	0.0748942	-0.329309	0.904227	0.551127	0.633639	0	0	0.0442367	-0.211656	0.471206	0.583083	1.46975	0	0
0.1	2.70072	1.29827	-1.26669	0.739947	-0.440391	0.953564	-0.354038	0.0624495	-0.16154	0.00293567	-0.0763577	0	0	-0.356733	-0.0863336	-0.365984	0	-0.0295333	0	0	-0.386397	0.0801771	0.145499	0.0718692	-0.312694	0.855307	0.532873	0.767552	0	0	0.0474313	-0.219081	0.472637	0.58892	1.47342	0	0
0.11	2.69937	1.30002	-1.26482	0.74004	-0.440402	0.953434	-0.351779	0.0626183	-0.16253	0.00340859	-0.0760426	0	0	-0.354518	-0.0865384	-0.365985	0	-0.0293415	0	0	-0.384391	0.0797607	0.145053	0.0724408	-0.310417	0.852842	0.529226	0.773336	0	0	0.0486042	-0.21928	0.472852	0.590215	1.47381	0	0
0.12	2.74965	1.30186	-1.30963	0.736754	-0.439112	0.953508	-0.356416	0.0449264	-0.169173	0.00241306	-0.0717571	0	0	-0.357006	-0.0691711	-0.344934	0	-0.0350699	0	0	-0.383455	0.0726757	0.137523	0.0695448	-0.31548	0.850643	0.529812	0.780065	0	0	0.0476425	-0.212464	0.472103	0.587074	1.47388	0	0
0.13	2.6827	1.29185	-1.28574	0.738761	-0.44496	0.9551	-0.334487	0.0497019	-0.12841	0.0346015	-0.0716012	0	0	-0.363726	-0.0764941	-0.386564	0	-0.0379743	0	0	-0.406633	0.0822337	0.183204	0.0844569	-0.328898	0.848807	0.535038	0.796644	0	0	0.0630346	-0.198228	0.468087	0.580952	1.4739	0	0
0.14	2.74859	1.29761	-1.31134	0.736545	-0.439848	0.953864	-0.357064	0.044515	-0.168531	0.00762111	-0.0699528	0	0	-0.361102	-0.069197	-0.348804	0	-0.0355213	0	0	-0.390044	0.0735457	0.141561	0.0748779	-0.312264	0.844113	0.51843	0.800803	0	0	0.0524156	-0.21016	0.471599	0.589682	1.47489	0	0
0.15	2.62389	1.29433	-1.23339	0.742822	-0.446861	0.954826	-0.322567	0.0697654	-0.119621	0.0372759	-0.0763175	0	0	-0.35488	-0.0962458	-0.411136	0	-0.031548	0	0	-0.403169	0.0880654	0.193054	0.0920611	-0.312558	0.836975	0.513188	0.81983	0	0	0.0690254	-0.206644	0.471901	0.589156	1.46943	0	0
0.16	2.74729	1.30338	-1.30769	0.736751	-0.439598	0.9534	-0.351383	0.0445565	-0.170799	0.00751627	-0.0689214	0	0	-0.354629	-0.0692899	-0.346942	0	-0.0346096	0	0	-0.383077	0.0724332	0.139571	0.0745621	-0.306189	0.83285	0.508627	0.822817	0	0	0.0533071	-0.211773	0.472233	0.593615	1.46965	0	0
